<?xml version="1.0" encoding="UTF-8" standalone="no"?>
<svg
   id="Layer_1"
   data-name="Layer 1"
   viewBox="0 0 50.000002 50"
   version="1.1"
   sodipodi:docname="icon.svg"
   inkscape:export-filename="icon.svg"
   inkscape:export-xdpi="96"
   inkscape:export-ydpi="96"
   inkscape:version="1.3.1 (91b66b0, 2023-11-16)"
   width="50"
   height="50"
   xmlns:inkscape="http://www.inkscape.org/namespaces/inkscape"
   xmlns:sodipodi="http://sodipodi.sourceforge.net/DTD/sodipodi-0.dtd"
   xmlns="http://www.w3.org/2000/svg"
   xmlns:svg="http://www.w3.org/2000/svg"
   xmlns:rdf="http://www.w3.org/1999/02/22-rdf-syntax-ns#"
   xmlns:cc="http://creativecommons.org/ns#"
   xmlns:dc="http://purl.org/dc/elements/1.1/">
  <sodipodi:namedview
     id="namedview15"
     pagecolor="#505050"
     bordercolor="#eeeeee"
     borderopacity="1"
     inkscape:showpageshadow="0"
     inkscape:pageopacity="0"
     inkscape:pagecheckerboard="0"
     inkscape:deskcolor="#d1d1d1"
     inkscape:zoom="5.1176558"
     inkscape:cx="48.557388"
     inkscape:cy="35.660859"
     inkscape:window-width="1440"
     inkscape:window-height="872"
     inkscape:window-x="0"
     inkscape:window-y="28"
     inkscape:window-maximized="0"
     inkscape:current-layer="Layer_1" />
  <defs
     id="defs1">
    <style
       id="style1">.cls-1,.cls-2,.cls-3,.cls-4,.cls-6{fill:none;}.cls-1{stroke:#000;stroke-width:6.98px;}.cls-1,.cls-2,.cls-4,.cls-6{stroke-linecap:round;}.cls-1,.cls-2,.cls-3,.cls-4{stroke-linejoin:round;}.cls-2,.cls-3,.cls-4,.cls-6{stroke:#fff;}.cls-2,.cls-3,.cls-6{stroke-width:6px;}.cls-4{stroke-width:7px;}.cls-5{fill:#fff;}.cls-6{stroke-miterlimit:10;}</style>
  </defs>
  <title
     id="title1">HallsHeroEmoji</title>
  <g
     id="line"
     transform="matrix(0.25985354,0,0,0.26032628,7,2.5)"
     inkscape:label="line">
    <path
       id="rect15"
       style="fill:#0089e5;stroke-width:2.64916"
       inkscape:label="rect15"
       transform="matrix(1.1110621,0,0,1.1111476,-7.6966433,-9.6033332)"
       d="M -15.314445,0 H 153.86014 c 1.11008,0 2.00376,0.89367934 2.00376,2.0037653 V 170.85054 c 0,1.11009 -0.89368,2.00377 -2.00376,2.00377 H -15.314445 c -1.110086,0 -2.003766,-0.89368 -2.003766,-2.00377 V 2.0037653 C -17.318211,0.89367934 -16.424531,0 -15.314445,0 Z" />
    <path
       style="color:#000000;fill:#000000;stroke-linecap:round;stroke-linejoin:round;-inkscape-stroke:none"
       d="m 484.04883,1033.2852 a 3.49,3.49 0 0 0 -4.51367,1.9961 3.49,3.49 0 0 0 1.99609,4.5136 c 7.54283,2.9186 15.90443,2.9186 23.44727,0 a 3.49,3.49 0 0 0 1.99609,-4.5136 3.49,3.49 0 0 0 -4.51367,-1.9961 c -5.92401,2.2922 -12.48811,2.2922 -18.41211,0 z"
       id="path1"
       transform="translate(-423.29,-941.98)" />
    <path
       style="color:#000000;fill:#ffffff;stroke-linecap:round;stroke-linejoin:round;-inkscape-stroke:none"
       d="m 493.69922,941.98047 c -32.72351,0 -51.83008,22.26233 -51.83008,44.84961 0,12.35249 0.85469,24.70322 3.13086,34.26762 1.13808,4.7821 2.6039,8.8802 4.73437,12.0429 2.13048,3.1627 5.30273,5.5196 9.08594,5.5196 a 3,3 0 0 0 3,-3 3,3 0 0 0 -3,-3 c -1.45178,0 -2.64267,-0.6938 -4.10937,-2.8711 -1.46671,-2.1773 -2.83238,-5.7092 -3.87305,-10.0821 -2.08133,-8.7456 -2.96875,-20.80944 -2.96875,-32.87692 0,-19.25268 15.77365,-38.84961 45.83008,-38.84961 30.05642,0 45.83008,19.59693 45.83008,38.84961 0,12.06707 -0.88813,24.13112 -2.97071,32.87692 -1.04128,4.373 -2.40847,7.9045 -3.875,10.0821 -1.46652,2.1776 -2.65534,2.8711 -4.10351,2.8711 a 3,3 0 0 0 -3,3 3,3 0 0 0 3,3 c 3.78182,0 6.95035,-2.3572 9.08008,-5.5196 2.12972,-3.1624 3.59761,-7.2609 4.73632,-12.0429 2.27743,-9.5642 3.13282,-21.91472 3.13282,-34.26762 0,-22.58728 -19.10657,-44.84961 -51.83008,-44.84961 z"
       id="path2"
       transform="translate(-423.29,-941.98)" />
    <path
       style="color:#000000;fill:#ffffff;stroke-linejoin:round;-inkscape-stroke:none"
       d="m 521.59961,969.88086 c -14.32526,0 -23.48207,2.72437 -31.16992,4.43359 -7.68785,1.70923 -13.74841,2.5249 -23.69141,-0.79101 a 3.0003,3.0003 0 0 0 -3.52148,1.30273 c 0,0 -10.87262,17.77271 -11.10743,36.38673 -0.36603,29.178 18.24193,51.8672 41.3711,51.8672 22.7222,0 41.58984,-22.6477 41.58984,-51.8301 0,-18.64067 -10.78711,-39.71289 -10.78711,-39.71289 a 3.0003,3.0003 0 0 0 -2.68359,-1.65625 z m -1.89258,6.08594 c 1.93798,4.18847 9.36328,21.06597 9.36328,35.2832 0,26.6175 -16.91208,45.8301 -35.58984,45.8301 -19.17079,0 -35.70506,-19.171 -35.3711,-45.793 0.17135,-13.58273 6.8987,-27.13787 9.21485,-31.44335 9.66374,2.71147 17.04341,1.96553 24.4082,0.32812 7.60071,-1.68985 15.59324,-3.96986 27.97461,-4.20507 z"
       id="path3"
       transform="translate(-423.29,-941.98)" />
    <path
       style="color:#000000;fill:#ffffff;stroke-linecap:round;stroke-linejoin:round;-inkscape-stroke:none"
       d="m 484.05273,1033.2754 a 3.5,3.5 0 0 0 -4.52734,2.0019 3.5,3.5 0 0 0 2.00195,4.5274 c 7.54515,2.9195 15.90993,2.9195 23.45508,0 a 3.5,3.5 0 0 0 2.00195,-4.5274 3.5,3.5 0 0 0 -4.52734,-2.0019 c -5.92169,2.2913 -12.48261,2.2913 -18.4043,0 z"
       id="path4"
       transform="translate(-423.29,-941.98)" />
    <path
       class="cls-5"
       d="m 512.21,1007.76 a 5,5 0 1 1 -5,-5 5,5 0 0 1 5,5"
       transform="translate(-423.29,-941.98)"
       id="path5" />
    <path
       class="cls-5"
       d="m 484.3,1007.76 a 5,5 0 1 1 -5,-5 5,5 0 0 1 5,5"
       transform="translate(-423.29,-941.98)"
       id="path6" />
    <path
       style="color:#000000;fill:#ffffff;stroke-linecap:round;stroke-miterlimit:10;-inkscape-stroke:none"
       d="m 464.03711,1071.252 c -4.30782,0.7325 -8.48146,2.1041 -12.38477,4.0683 h -0.008 -0.008 c -5.91509,3.0183 -11.0796,7.323 -15.11133,12.5996 a 3,3 0 0 0 0.5625,4.2071 3,3 0 0 0 4.20508,-0.5625 c 3.48591,-4.5623 7.95068,-8.286 13.06445,-10.8965 0.002,0 0.004,0 0.006,0 3.36584,-1.6918 6.96582,-2.8724 10.67969,-3.5039 a 3,3 0 0 0 2.45508,-3.461 3,3 0 0 0 -3.46094,-2.455 z"
       id="path7"
       transform="translate(-423.29,-941.98)" />
    <path
       style="color:#000000;fill:#ffffff;stroke-linecap:round;stroke-miterlimit:10;-inkscape-stroke:none"
       d="m 468.14453,1073.0898 c -12.88726,4.3806 -22.57936,15.1532 -25.58008,28.4297 a 3,3 0 0 0 2.26367,3.586 3,3 0 0 0 3.5879,-2.2637 c 2.54244,-11.2489 10.74104,-20.3607 21.66015,-24.0723 a 3,3 0 0 0 1.875,-3.8047 3,3 0 0 0 -3.80664,-1.875 z"
       id="path8"
       transform="translate(-423.29,-941.98)" />
    <path
       style="color:#000000;fill:#ffffff;stroke-linecap:round;stroke-miterlimit:10;-inkscape-stroke:none"
       d="m 522.19727,1072.123 a 3,3 0 0 0 -3.46485,2.4512 3,3 0 0 0 2.45117,3.4629 c 9.45561,1.6196 17.94691,6.7538 23.77344,14.375 a 3,3 0 0 0 4.20508,0.5606 3,3 0 0 0 0.56055,-4.2051 c -6.74532,-8.823 -16.57873,-14.7696 -27.52539,-16.6446 z"
       id="path9"
       transform="translate(-423.29,-941.98)" />
    <path
       style="color:#000000;fill:#ffffff;stroke-linecap:round;stroke-miterlimit:10;-inkscape-stroke:none"
       d="m 518.10547,1073.9395 a 3,3 0 0 0 -3.80664,1.875 3,3 0 0 0 1.87695,3.8066 c 10.912,3.7065 19.10723,12.8045 21.6582,24.043 a 3,3 0 0 0 3.58985,2.2617 3,3 0 0 0 2.26172,-3.5899 c -3.01079,-13.2641 -12.70119,-24.0219 -25.58008,-28.3964 z"
       id="path10"
       transform="translate(-423.29,-941.98)" />
    <path
       style="color:#000000;fill:#ffffff;stroke-linecap:round;stroke-miterlimit:10;-inkscape-stroke:none"
       d="m 473.77539,1077.0918 a 3,3 0 0 0 -4.24219,0.014 c -6.54964,6.5882 -11.84244,14.3172 -15.61523,22.8066 h -0.002 l -0.002,0.01 c -1.53374,3.4852 -2.80108,7.081 -3.79101,10.7578 a 3,3 0 0 0 2.11718,3.6777 3,3 0 0 0 3.67579,-2.1172 c 0.91017,-3.3805 2.07664,-6.688 3.48632,-9.8925 h 0.002 c 8.3e-4,0 0.001,0 0.002,-0.01 3.47586,-7.8181 8.3487,-14.9342 14.38086,-21.002 a 3,3 0 0 0 -0.0117,-4.2441 z"
       id="path11"
       transform="translate(-423.29,-941.98)" />
    <path
       style="color:#000000;fill:#ffffff;stroke-linecap:round;stroke-linejoin:round;-inkscape-stroke:none"
       d="m 461.16992,1066.9902 c -19.0148,0 -37.88086,14.9649 -37.88086,34.3907 v 10.4589 a 3,3 0 0 0 3,3 3,3 0 0 0 3,-3 v -10.4589 c 0,-15.1372 15.50584,-27.852 31.03125,-28.3067 10.51074,8.4677 21.31648,12.9961 32.24414,12.9961 10.92755,0 21.73174,-4.5283 32.23633,-12.9961 15.53168,0.4567 31.0293,13.2017 31.0293,28.3067 v 10.4589 a 3,3 0 0 0 3,3 3,3 0 0 0 3,-3 v -10.4589 c 0,-19.3981 -18.85353,-34.3907 -37.88086,-34.3907 a 3.0003,3.0003 0 0 0 -1.91992,0.6953 c -10.08209,8.405 -19.83491,12.3848 -29.46485,12.3848 -9.62993,0 -19.38567,-3.9794 -29.47461,-12.3848 a 3.0003,3.0003 0 0 0 -1.91992,-0.6953 z"
       id="path12"
       transform="translate(-423.29,-941.98)" />
    <path
       style="color:#000000;fill:#ffffff;stroke-linecap:round;stroke-miterlimit:10;-inkscape-stroke:none"
       d="m 513,1076.9844 a 3,3 0 0 0 -0.23633,4.2363 c 5.70848,6.3797 10.46899,13.547 14.13477,21.2832 v 0 h 0.002 c 1.55504,3.2772 2.9009,6.6502 4.0293,10.0976 a 3,3 0 0 0 3.7832,1.918 3,3 0 0 0 1.91797,-3.7852 c -1.20707,-3.6878 -2.64716,-7.295 -4.31055,-10.8008 v 0 c -3.91225,-8.256 -8.99191,-15.9065 -15.08398,-22.7148 A 3,3 0 0 0 513,1076.9844 Z"
       id="path13"
       transform="translate(-423.29,-941.98)" />
    <path
       style="color:#000000;fill:#ffffff;stroke-linecap:round;stroke-linejoin:round;-inkscape-stroke:none"
       d="m 479.03906,1093.3809 a 3.0003,3.0003 0 0 0 -2.97656,2.6386 c -0.28356,2.3368 -2.05907,4.1739 -4.38477,4.5371 a 3.0003,3.0003 0 0 0 -2.17578,4.3926 l 3.58008,6.6094 a 3,3 0 0 0 4.06641,1.209 3,3 0 0 0 1.20898,-4.0664 l -1.95508,-3.6094 c 2.22924,-1.2774 3.90721,-3.2942 4.8418,-5.7109 h 22.97852 c 0.93331,2.4169 2.61288,4.4337 4.84179,5.7109 -0.0522,0.097 -0.0578,0.1062 -0.11133,0.2051 -0.42217,0.7793 -0.84341,1.5573 -1.16601,2.1543 -0.1613,0.2984 -0.29842,0.5524 -0.39844,0.7383 -0.10002,0.1858 -0.0749,0.1225 -0.21289,0.3984 a 3,3 0 0 0 1.3418,4.0254 3,3 0 0 0 4.02539,-1.3418 c -0.11546,0.2309 0.0319,-0.06 0.1289,-0.2402 0.097,-0.1802 0.23216,-0.4298 0.39258,-0.7266 0.32084,-0.5937 0.74249,-1.3722 1.16407,-2.1504 0.84315,-1.5564 1.84183,-3.3887 1.7246,-3.1777 a 3.0003,3.0003 0 0 0 -2.1621,-4.4219 c -2.32523,-0.361 -4.10151,-2.197 -4.38282,-4.5332 a 3.0003,3.0003 0 0 0 -2.97851,-2.6406 z"
       id="path14"
       transform="translate(-423.29,-941.98)" />
    <path
       style="color:#000000;fill:#ffffff;stroke-linejoin:round;-inkscape-stroke:none"
       d="m 479.52344,993.49609 c -1.07086,-0.0417 -2.11105,0.0383 -3.10938,0.22852 -3.9933,0.76085 -7.10929,3.0323 -9.70703,5.22266 l 0.25195,-0.19336 c -3.3987,2.29809 -7.43442,3.46679 -11.53515,3.33789 a 3.0003,3.0003 0 0 0 -3.08985,2.8516 l -0.25976,5.3398 a 3.0003,3.0003 0 0 0 3.08984,3.1445 c 4.10429,-0.1289 8.14429,1.0392 11.54688,3.3379 l -0.25391,-0.1914 c 2.59774,2.1904 5.71373,4.4599 9.70703,5.2207 3.9933,0.7609 8.63371,-0.2506 13.39453,-3.6933 a 3.0003,3.0003 0 0 0 0.28907,-0.2383 c 1.86908,-1.7452 4.69536,-1.7452 6.56445,0 a 3.0003,3.0003 0 0 0 0.28906,0.2383 c 4.76083,3.4427 9.40123,4.4542 13.39453,3.6933 3.9933,-0.7608 7.11125,-3.0303 9.70899,-5.2207 l -0.25391,0.1914 c 3.39871,-2.2981 7.43442,-3.4667 11.53516,-3.3379 a 3.0003,3.0003 0 0 0 3.08984,-2.8515 l 0.25977,-5.3399 a 3.0003,3.0003 0 0 0 -3.08985,-3.1445 c -4.10428,0.129 -8.14429,-1.0392 -11.54687,-3.33789 l 0.25586,0.19336 c -2.59774,-2.19036 -5.71569,-4.46181 -9.70899,-5.22266 -3.9933,-0.76085 -8.6337,0.25261 -13.39453,3.69531 a 3.0003,3.0003 0 0 0 -0.28906,0.23828 c -1.86909,1.74515 -4.69537,1.74515 -6.56445,0 a 3.0003,3.0003 0 0 0 -0.28907,-0.23828 c -3.57062,-2.58202 -7.07259,-3.79856 -10.28515,-3.92383 z m -1.98633,6.12305 c 2.34419,-0.44664 4.9567,-0.0852 8.75586,2.66206 l -0.29102,-0.2382 c 4.13283,3.8588 10.62303,3.8588 14.75586,0 l -0.28906,0.2382 c 3.79916,-2.74724 6.40971,-3.1087 8.75391,-2.66206 2.34419,0.44666 4.65063,1.96446 6.96289,3.91406 a 3.0003,3.0003 0 0 0 0.25586,0.1934 c 3.10354,2.0967 6.62422,3.4224 10.28515,4.0058 -3.75349,0.5587 -7.36199,1.9156 -10.53711,4.0625 a 3.0003,3.0003 0 0 0 -0.2539,0.1914 c -2.31226,1.9497 -4.6187,3.4694 -6.96289,3.916 -2.3442,0.4467 -4.95475,0.083 -8.75391,-2.664 l 0.28906,0.2383 c -4.13283,-3.8588 -10.62303,-3.8588 -14.75586,0 l 0.29102,-0.2383 c -3.79916,2.7473 -6.41167,3.1107 -8.75586,2.664 -2.3442,-0.4466 -4.65063,-1.9663 -6.96289,-3.916 a 3.0003,3.0003 0 0 0 -0.25391,-0.1914 c -3.10399,-2.097 -6.62561,-3.4245 -10.28711,-4.0078 3.75348,-0.5586 7.36201,-1.9156 10.53711,-4.0625 a 3.0003,3.0003 0 0 0 0.25391,-0.1914 c 2.31226,-1.9496 4.61869,-3.4674 6.96289,-3.91406 z"
       id="path15"
       transform="translate(-423.29,-941.98)" />
  </g>
  <metadata
     id="metadata16">
    <rdf:RDF>
      <cc:Work
         rdf:about="">
        <dc:title>HallsHeroEmoji</dc:title>
      </cc:Work>
    </rdf:RDF>
  </metadata>
</svg>
