<?xml version="1.0" encoding="UTF-8"?>
<svg width="50" height="50" data-name="Layer 1" version="1.1" viewBox="0 0 50 50" xmlns="http://www.w3.org/2000/svg" xmlns:cc="http://creativecommons.org/ns#" xmlns:dc="http://purl.org/dc/elements/1.1/" xmlns:rdf="http://www.w3.org/1999/02/22-rdf-syntax-ns#">
 <defs>
  <style>.cls-1,.cls-2,.cls-3,.cls-4,.cls-6{fill:none;}.cls-1{stroke:#000;stroke-width:6.98px;}.cls-1,.cls-2,.cls-4,.cls-6{stroke-linecap:round;}.cls-1,.cls-2,.cls-3,.cls-4{stroke-linejoin:round;}.cls-2,.cls-3,.cls-4,.cls-6{stroke:#fff;}.cls-2,.cls-3,.cls-6{stroke-width:6px;}.cls-4{stroke-width:7px;}.cls-5{fill:#fff;}.cls-6{stroke-miterlimit:10;}</style>
 </defs>
 <title>HallsHeroEmoji</title>
 <g id="line" transform="matrix(.25985 0 0 .26033 7 2.5)">
  <path transform="matrix(1.1111 0 0 1.1111 -7.6966 -9.6033)" d="m-15.314 0h169.17c1.1101 0 2.0038 0.89368 2.0038 2.0038v168.85c0 1.1101-0.89368 2.0038-2.0038 2.0038h-169.17c-1.1101 0-2.0038-0.89368-2.0038-2.0038v-168.85c0-1.1101 0.89368-2.0038 2.0038-2.0038z" display="none" fill="#0089e5" stroke-width="2.6492"/>
  <path transform="translate(-423.29,-941.98)" d="m484.05 1033.3a3.49 3.49 0 0 0-4.5137 1.9961 3.49 3.49 0 0 0 1.9961 4.5136c7.5428 2.9186 15.904 2.9186 23.447 0a3.49 3.49 0 0 0 1.9961-4.5136 3.49 3.49 0 0 0-4.5137-1.9961c-5.924 2.2922-12.488 2.2922-18.412 0z" color="#000000" stroke-linecap="round" stroke-linejoin="round" style="-inkscape-stroke:none"/>
  <g fill="#fff" stroke-linejoin="round">
   <path transform="translate(-423.29,-941.98)" d="m493.7 941.98c-32.724 0-51.83 22.262-51.83 44.85 0 12.352 0.85469 24.703 3.1309 34.268 1.1381 4.7821 2.6039 8.8802 4.7344 12.043 2.1305 3.1627 5.3027 5.5196 9.0859 5.5196a3 3 0 0 0 3-3 3 3 0 0 0-3-3c-1.4518 0-2.6427-0.6938-4.1094-2.8711-1.4667-2.1773-2.8324-5.7092-3.873-10.082-2.0813-8.7456-2.9688-20.809-2.9688-32.877 0-19.253 15.774-38.85 45.83-38.85 30.056 0 45.83 19.597 45.83 38.85 0 12.067-0.88813 24.131-2.9707 32.877-1.0413 4.373-2.4085 7.9045-3.875 10.082-1.4665 2.1776-2.6553 2.8711-4.1035 2.8711a3 3 0 0 0-3 3 3 3 0 0 0 3 3c3.7818 0 6.9504-2.3572 9.0801-5.5196 2.1297-3.1624 3.5976-7.2609 4.7363-12.043 2.2774-9.5642 3.1328-21.915 3.1328-34.268 0-22.587-19.107-44.85-51.83-44.85z" color="#000000" stroke-linecap="round" style="-inkscape-stroke:none"/>
   <path transform="translate(-423.29,-941.98)" d="m521.6 969.88c-14.325 0-23.482 2.7244-31.17 4.4336-7.6878 1.7092-13.748 2.5249-23.691-0.79101a3.0003 3.0003 0 0 0-3.5215 1.3027s-10.873 17.773-11.107 36.387c-0.36603 29.178 18.242 51.867 41.371 51.867 22.722 0 41.59-22.648 41.59-51.83 0-18.641-10.787-39.713-10.787-39.713a3.0003 3.0003 0 0 0-2.6836-1.6562zm-1.8926 6.0859c1.938 4.1885 9.3633 21.066 9.3633 35.283 0 26.618-16.912 45.83-35.59 45.83-19.171 0-35.705-19.171-35.371-45.793 0.17135-13.583 6.8987-27.138 9.2148-31.443 9.6637 2.7115 17.043 1.9655 24.408 0.32812 7.6007-1.6898 15.593-3.9699 27.975-4.2051z" color="#000000" style="-inkscape-stroke:none"/>
   <path transform="translate(-423.29,-941.98)" d="m484.05 1033.3a3.5 3.5 0 0 0-4.5273 2.0019 3.5 3.5 0 0 0 2.002 4.5274c7.5452 2.9195 15.91 2.9195 23.455 0a3.5 3.5 0 0 0 2.002-4.5274 3.5 3.5 0 0 0-4.5273-2.0019c-5.9217 2.2913-12.483 2.2913-18.404 0z" color="#000000" stroke-linecap="round" style="-inkscape-stroke:none"/>
  </g>
  <path class="cls-5" transform="translate(-423.29,-941.98)" d="m512.21 1007.8a5 5 0 1 1-5-5 5 5 0 0 1 5 5"/>
  <path class="cls-5" transform="translate(-423.29,-941.98)" d="m484.3 1007.8a5 5 0 1 1-5-5 5 5 0 0 1 5 5"/>
  <g fill="#fff">
   <g stroke-linecap="round">
    <g stroke-miterlimit="10">
     <path transform="translate(-423.29,-941.98)" d="m464.04 1071.3c-4.3078 0.7325-8.4815 2.1041-12.385 4.0683h-0.016c-5.9151 3.0183-11.08 7.323-15.111 12.6a3 3 0 0 0 0.5625 4.2071 3 3 0 0 0 4.2051-0.5625c3.4859-4.5623 7.9507-8.286 13.064-10.896h6e-3c3.3658-1.6918 6.9658-2.8724 10.68-3.5039a3 3 0 0 0 2.4551-3.461 3 3 0 0 0-3.4609-2.455z" color="#000000" style="-inkscape-stroke:none"/>
     <path transform="translate(-423.29,-941.98)" d="m468.14 1073.1c-12.887 4.3806-22.579 15.153-25.58 28.43a3 3 0 0 0 2.2637 3.586 3 3 0 0 0 3.5879-2.2637c2.5424-11.249 10.741-20.361 21.66-24.072a3 3 0 0 0 1.875-3.8047 3 3 0 0 0-3.8066-1.875z" color="#000000" style="-inkscape-stroke:none"/>
     <path transform="translate(-423.29,-941.98)" d="m522.2 1072.1a3 3 0 0 0-3.4648 2.4512 3 3 0 0 0 2.4512 3.4629c9.4556 1.6196 17.947 6.7538 23.773 14.375a3 3 0 0 0 4.2051 0.5606 3 3 0 0 0 0.56055-4.2051c-6.7453-8.823-16.579-14.77-27.525-16.645z" color="#000000" style="-inkscape-stroke:none"/>
     <path transform="translate(-423.29,-941.98)" d="m518.11 1073.9a3 3 0 0 0-3.8066 1.875 3 3 0 0 0 1.877 3.8066c10.912 3.7065 19.107 12.804 21.658 24.043a3 3 0 0 0 3.5898 2.2617 3 3 0 0 0 2.2617-3.5899c-3.0108-13.264-12.701-24.022-25.58-28.396z" color="#000000" style="-inkscape-stroke:none"/>
     <path transform="translate(-423.29,-941.98)" d="m473.78 1077.1a3 3 0 0 0-4.2422 0.014c-6.5496 6.5882-11.842 14.317-15.615 22.807h-2e-3l-2e-3 0.01c-1.5337 3.4852-2.8011 7.081-3.791 10.758a3 3 0 0 0 2.1172 3.6777 3 3 0 0 0 3.6758-2.1172c0.91017-3.3805 2.0766-6.688 3.4863-9.8925h2e-3c8.3e-4 0 1e-3 0 2e-3 -0.01 3.4759-7.8181 8.3487-14.934 14.381-21.002a3 3 0 0 0-0.0117-4.2441z" color="#000000" style="-inkscape-stroke:none"/>
    </g>
    <path transform="translate(-423.29,-941.98)" d="m461.17 1067c-19.015 0-37.881 14.965-37.881 34.391v10.459a3 3 0 0 0 3 3 3 3 0 0 0 3-3v-10.459c0-15.137 15.506-27.852 31.031-28.307 10.511 8.4677 21.316 12.996 32.244 12.996 10.928 0 21.732-4.5283 32.236-12.996 15.532 0.4567 31.029 13.202 31.029 28.307v10.459a3 3 0 0 0 3 3 3 3 0 0 0 3-3v-10.459c0-19.398-18.854-34.391-37.881-34.391a3.0003 3.0003 0 0 0-1.9199 0.6953c-10.082 8.405-19.835 12.385-29.465 12.385-9.6299 0-19.386-3.9794-29.475-12.385a3.0003 3.0003 0 0 0-1.9199-0.6953z" color="#000000" stroke-linejoin="round" style="-inkscape-stroke:none"/>
    <path transform="translate(-423.29,-941.98)" d="m513 1077a3 3 0 0 0-0.23633 4.2363c5.7085 6.3797 10.469 13.547 14.135 21.283h2e-3c1.555 3.2772 2.9009 6.6502 4.0293 10.098a3 3 0 0 0 3.7832 1.918 3 3 0 0 0 1.918-3.7852c-1.2071-3.6878-2.6472-7.295-4.3106-10.801-3.9122-8.256-8.9919-15.906-15.084-22.715a3 3 0 0 0-4.2364-0.2343z" color="#000000" stroke-miterlimit="10" style="-inkscape-stroke:none"/>
    <path transform="translate(-423.29,-941.98)" d="m479.04 1093.4a3.0003 3.0003 0 0 0-2.9766 2.6386c-0.28356 2.3368-2.0591 4.1739-4.3848 4.5371a3.0003 3.0003 0 0 0-2.1758 4.3926l3.5801 6.6094a3 3 0 0 0 4.0664 1.209 3 3 0 0 0 1.209-4.0664l-1.9551-3.6094c2.2292-1.2774 3.9072-3.2942 4.8418-5.7109h22.979c0.93331 2.4169 2.6129 4.4337 4.8418 5.7109-0.0522 0.097-0.0578 0.1062-0.11133 0.2051-0.42217 0.7793-0.84341 1.5573-1.166 2.1543-0.1613 0.2984-0.29842 0.5524-0.39844 0.7383-0.10002 0.1858-0.0749 0.1225-0.21289 0.3984a3 3 0 0 0 1.3418 4.0254 3 3 0 0 0 4.0254-1.3418c-0.11546 0.2309 0.0319-0.06 0.1289-0.2402s0.23216-0.4298 0.39258-0.7266c0.32084-0.5937 0.74249-1.3722 1.1641-2.1504 0.84315-1.5564 1.8418-3.3887 1.7246-3.1777a3.0003 3.0003 0 0 0-2.1621-4.4219c-2.3252-0.361-4.1015-2.197-4.3828-4.5332a3.0003 3.0003 0 0 0-2.9785-2.6406z" color="#000000" stroke-linejoin="round" style="-inkscape-stroke:none"/>
   </g>
   <path transform="translate(-423.29,-941.98)" d="m479.52 993.5c-1.0709-0.0417-2.111 0.0383-3.1094 0.22852-3.9933 0.76085-7.1093 3.0323-9.707 5.2227l0.25195-0.19336c-3.3987 2.2981-7.4344 3.4668-11.535 3.3379a3.0003 3.0003 0 0 0-3.0898 2.8516l-0.25976 5.3398a3.0003 3.0003 0 0 0 3.0898 3.1445c4.1043-0.1289 8.1443 1.0392 11.547 3.3379l-0.25391-0.1914c2.5977 2.1904 5.7137 4.4599 9.707 5.2207 3.9933 0.7609 8.6337-0.2506 13.395-3.6933a3.0003 3.0003 0 0 0 0.28907-0.2383c1.8691-1.7452 4.6954-1.7452 6.5644 0a3.0003 3.0003 0 0 0 0.28906 0.2383c4.7608 3.4427 9.4012 4.4542 13.395 3.6933 3.9933-0.7608 7.1112-3.0303 9.709-5.2207l-0.25391 0.1914c3.3987-2.2981 7.4344-3.4667 11.535-3.3379a3.0003 3.0003 0 0 0 3.0898-2.8515l0.25977-5.3399a3.0003 3.0003 0 0 0-3.0898-3.1445c-4.1043 0.129-8.1443-1.0392-11.547-3.3379l0.25586 0.19336c-2.5977-2.1904-5.7157-4.4618-9.709-5.2227s-8.6337 0.25261-13.395 3.6953a3.0003 3.0003 0 0 0-0.28906 0.23828c-1.8691 1.7452-4.6954 1.7452-6.5644 0a3.0003 3.0003 0 0 0-0.28907-0.23828c-3.5706-2.582-7.0726-3.7986-10.285-3.9238zm-1.9863 6.123c2.3442-0.44664 4.9567-0.0852 8.7559 2.6621l-0.29102-0.2382c4.1328 3.8588 10.623 3.8588 14.756 0l-0.28906 0.2382c3.7992-2.7472 6.4097-3.1087 8.7539-2.6621 2.3442 0.44666 4.6506 1.9645 6.9629 3.9141a3.0003 3.0003 0 0 0 0.25586 0.1934c3.1035 2.0967 6.6242 3.4224 10.285 4.0058-3.7535 0.5587-7.362 1.9156-10.537 4.0625a3.0003 3.0003 0 0 0-0.2539 0.1914c-2.3123 1.9497-4.6187 3.4694-6.9629 3.916-2.3442 0.4467-4.9548 0.083-8.7539-2.664l0.28906 0.2383c-4.1328-3.8588-10.623-3.8588-14.756 0l0.29102-0.2383c-3.7992 2.7473-6.4117 3.1107-8.7559 2.664-2.3442-0.4466-4.6506-1.9663-6.9629-3.916a3.0003 3.0003 0 0 0-0.25391-0.1914c-3.104-2.097-6.6256-3.4245-10.287-4.0078 3.7535-0.5586 7.362-1.9156 10.537-4.0625a3.0003 3.0003 0 0 0 0.25391-0.1914c2.3123-1.9496 4.6187-3.4674 6.9629-3.9141z" color="#000000" stroke-linejoin="round" style="-inkscape-stroke:none"/>
  </g>
 </g>
 <metadata>
  <rdf:RDF>
   <cc:Work rdf:about="">
    <dc:title>HallsHeroEmoji</dc:title>
   </cc:Work>
  </rdf:RDF>
 </metadata>
</svg>
