<?xml version="1.0" encoding="UTF-8" standalone="no"?>
<svg
   id="Layer_1"
   data-name="Layer 1"
   viewBox="0 0 6926.9998 8643"
   version="1.1"
   width="6926.9995"
   height="8643"
   xmlns="http://www.w3.org/2000/svg"
   xmlns:svg="http://www.w3.org/2000/svg">
  <defs
     id="defs1">
    <style
       id="style1">.cls-1,.cls-2,.cls-3,.cls-4,.cls-6{fill:none;}.cls-1{stroke:#000;stroke-width:6.98px;}.cls-1,.cls-2,.cls-4,.cls-6{stroke-linecap:round;}.cls-1,.cls-2,.cls-3,.cls-4{stroke-linejoin:round;}.cls-2,.cls-3,.cls-4,.cls-6{stroke:#fff;}.cls-2,.cls-3,.cls-6{stroke-width:6px;}.cls-4{stroke-width:7px;}.cls-5{fill:#fff;}.cls-6{stroke-miterlimit:10;}</style>
  </defs>
  <title
     id="title1">HallsHeroEmoji</title>
  <g
     id="line"
     transform="matrix(0.28871343,0,0,0.28926093,5,0)">
    <path
       class="cls-1"
       d="m 482.79,1036.54 a 29,29 0 0 0 20.93,0"
       transform="translate(-423.29,-941.98)"
       id="path1" />
    <path
       class="cls-2"
       d="m 458.82,1035.66 c -10.47,0 -13.95,-24.41 -13.95,-48.83 0,-20.92 17.44,-41.85 48.83,-41.85 31.39,0 48.83,20.93 48.83,41.85 0,24.42 -3.49,48.83 -13.95,48.83"
       transform="translate(-423.29,-941.98)"
       id="path2" />
    <path
       class="cls-3"
       d="m 455.11,1011.25 c -0.35,27.9 17.22,48.83 38.37,48.83 20.7,0 38.59,-20.93 38.59,-48.83 0,-17.44 -10.47,-38.37 -10.47,-38.37 -27.9,0 -34.88,10.47 -55.81,3.49 0,0 -10.46,17.44 -10.68,34.88 z"
       transform="translate(-423.29,-941.98)"
       id="path3" />
    <path
       class="cls-4"
       d="m 482.79,1036.54 a 29,29 0 0 0 20.93,0"
       transform="translate(-423.29,-941.98)"
       id="path4" />
    <path
       class="cls-5"
       d="m 512.21,1007.76 a 5,5 0 1 1 -5,-5 5,5 0 0 1 5,5"
       transform="translate(-423.29,-941.98)"
       id="path5" />
    <path
       class="cls-5"
       d="m 484.3,1007.76 a 5,5 0 1 1 -5,-5 5,5 0 0 1 5,5"
       transform="translate(-423.29,-941.98)"
       id="path6" />
    <path
       class="cls-6"
       d="M 438.91,1089.75 A 41.43,41.43 0 0 1 453,1078 a 40.94,40.94 0 0 1 11.54,-3.79"
       transform="translate(-423.29,-941.98)"
       id="path7" />
    <path
       class="cls-6"
       d="m 469.11,1075.93 a 36.14,36.14 0 0 0 -23.62,26.25"
       transform="translate(-423.29,-941.98)"
       id="path8" />
    <path
       class="cls-6"
       d="m 547.34,1090.59 a 41,41 0 0 0 -25.65,-15.51"
       transform="translate(-423.29,-941.98)"
       id="path9" />
    <path
       class="cls-6"
       d="M 517.14,1076.78 A 36.14,36.14 0 0 1 540.76,1103"
       transform="translate(-423.29,-941.98)"
       id="path10" />
    <path
       class="cls-6"
       d="m 471.66,1079.22 a 73.3,73.3 0 0 0 -15,21.91 72.33,72.33 0 0 0 -3.64,10.33"
       transform="translate(-423.29,-941.98)"
       id="path11" />
    <path
       class="cls-2"
       d="m 426.29,1111.84 v -10.46 c 0,-17.42 17.47,-31.39 34.88,-31.39 q 31.4,26.16 62.78,0 c 17.42,0 34.88,14 34.88,31.39 v 10.46"
       transform="translate(-423.29,-941.98)"
       id="path12" />
    <path
       class="cls-6"
       d="m 515,1079.22 a 92.2,92.2 0 0 1 14.61,22 88.85,88.85 0 0 1 4.17,10.45"
       transform="translate(-423.29,-941.98)"
       id="path13" />
    <path
       class="cls-2"
       d="m 475.72,1110.13 -3.58,-6.61 a 8.23,8.23 0 0 0 6.9,-7.14 h 27.39 a 8.22,8.22 0 0 0 6.9,7.14 c -0.1,0.18 -3.38,6.23 -3.47,6.41"
       transform="translate(-423.29,-941.98)"
       id="path14" />
    <path
       class="cls-3"
       d="m 455.33,1005.09 a 22.5,22.5 0 0 0 13.31,-3.85 c 4.91,-4.14 10.85,-7.58 19.41,-1.39 a 7.81,7.81 0 0 0 10.66,0 c 8.56,-6.19 14.5,-2.75 19.41,1.39 a 22.53,22.53 0 0 0 13.32,3.85 l -0.26,5.34 a 22.5,22.5 0 0 0 -13.31,3.85 c -4.91,4.14 -10.85,7.58 -19.41,1.39 a 7.81,7.81 0 0 0 -10.66,0 c -8.56,6.19 -14.5,2.75 -19.41,-1.39 a 22.53,22.53 0 0 0 -13.32,-3.85 z"
       transform="translate(-423.29,-941.98)"
       id="path15" />
  </g>
</svg>
